HIERARCHY
ROOT Hips
{
	OFFSET 0.00000 0.00000 0.00000
	CHANNELS 6 Xposition Yposition Zposition Zrotation Yrotation Xrotation 
	JOINT LHipJoint
	{
		OFFSET 0 0 0
		CHANNELS 3 Zrotation Yrotation Xrotation
		JOINT LeftUpLeg
		{
			OFFSET 1.56857 -1.73443 1.15205
			CHANNELS 3 Zrotation Yrotation Xrotation
			JOINT LeftLeg
			{
				OFFSET 2.39362 -6.57643 0.00000
				CHANNELS 3 Zrotation Yrotation Xrotation
				JOINT LeftFoot
				{
					OFFSET 2.50952 -6.89485 0.00000
					CHANNELS 3 Zrotation Yrotation Xrotation
					JOINT LeftToeBase
					{
						OFFSET 0.17171 -0.47178 1.88682
						CHANNELS 3 Zrotation Yrotation Xrotation
						End Site
						{
							OFFSET 0.00000 -0.00000 0.98146
						}
					}
				}
			}
		}
	}
	JOINT RHipJoint
	{
		OFFSET 0 0 0
		CHANNELS 3 Zrotation Yrotation Xrotation
		JOINT RightUpLeg
		{
			OFFSET -1.28153 -1.73443 1.15205
			CHANNELS 3 Zrotation Yrotation Xrotation
			JOINT RightLeg
			{
				OFFSET -2.26861 -6.23296 0.00000
				CHANNELS 3 Zrotation Yrotation Xrotation
				JOINT RightFoot
				{
					OFFSET -2.54143 -6.98254 0.00000
					CHANNELS 3 Zrotation Yrotation Xrotation
					JOINT RightToeBase
					{
						OFFSET -0.23309 -0.64041 1.93119
						CHANNELS 3 Zrotation Yrotation Xrotation
						End Site
						{
							OFFSET -0.00000 -0.00000 1.02013
						}
					}
				}
			}
		}
	}
	JOINT LowerBack
	{
		OFFSET 0 0 0
		CHANNELS 3 Zrotation Yrotation Xrotation
		JOINT Spine
		{
			OFFSET -0.07096 2.10460 -0.27878
			CHANNELS 3 Zrotation Yrotation Xrotation
			JOINT Spine1
			{
				OFFSET -0.00826 2.13662 -0.08279
				CHANNELS 3 Zrotation Yrotation Xrotation
				JOINT Neck
				{
					OFFSET 0 0 0
					CHANNELS 3 Zrotation Yrotation Xrotation
					JOINT Neck1
					{
						OFFSET 0.03239 1.77799 0.24435
						CHANNELS 3 Zrotation Yrotation Xrotation
						JOINT Head
						{
							OFFSET 0.01026 1.74194 -0.49664
							CHANNELS 3 Zrotation Yrotation Xrotation
							End Site
							{
								OFFSET 0.00170 1.83057 -0.19653
							}
						}
					}
				}
				JOINT LeftShoulder
				{
					OFFSET 0 0 0
					CHANNELS 3 Zrotation Yrotation Xrotation
					JOINT LeftArm
					{
						OFFSET 3.19178 1.35907 -0.31412
						CHANNELS 3 Zrotation Yrotation Xrotation
						JOINT LeftForeArm
						{
							OFFSET 4.85247 -0.00000 -0.00000
							CHANNELS 3 Zrotation Yrotation Xrotation
							JOINT LeftHand
							{
								OFFSET 3.55584 -0.00000 0.00000
								CHANNELS 3 Zrotation Yrotation Xrotation
								JOINT LeftFingerBase
								{
									OFFSET 0 0 0
									CHANNELS 3 Zrotation Yrotation Xrotation
									JOINT LeftHandIndex1
									{
										OFFSET 0.69320 -0.00000 0.00000
										CHANNELS 3 Zrotation Yrotation Xrotation
										End Site
										{
											OFFSET 0.55888 -0.00000 0.00000
										}
									}
								}
								JOINT LThumb
								{
									OFFSET 0 0 0
									CHANNELS 3 Zrotation Yrotation Xrotation
									End Site
									{
										OFFSET 0.56741 -0.00000 0.56741
									}
								}
							}
						}
					}
				}
				JOINT RightShoulder
				{
					OFFSET 0 0 0
					CHANNELS 3 Zrotation Yrotation Xrotation
					JOINT RightArm
					{
						OFFSET -3.28999 1.24191 -0.26899
						CHANNELS 3 Zrotation Yrotation Xrotation
						JOINT RightForeArm
						{
							OFFSET -4.64462 -0.00000 0.00000
							CHANNELS 3 Zrotation Yrotation Xrotation
							JOINT RightHand
							{
								OFFSET -3.40703 -0.00000 0.00000
								CHANNELS 3 Zrotation Yrotation Xrotation
								JOINT RightFingerBase
								{
									OFFSET 0 0 0
									CHANNELS 3 Zrotation Yrotation Xrotation
									JOINT RightHandIndex1
									{
										OFFSET -0.61958 -0.00000 0.00000
										CHANNELS 3 Zrotation Yrotation Xrotation
										End Site
										{
											OFFSET -0.49952 -0.00000 0.00000
										}
									}
								}
								JOINT RThumb
								{
									OFFSET 0 0 0
									CHANNELS 3 Zrotation Yrotation Xrotation
									End Site
									{
										OFFSET -0.50715 -0.00000 0.50715
									}
								}
							}
						}
					}
				}
			}
		}
	}
}
MOTION
Frames: 7
Frame Time: .0083333
24.2513 16.3305 0.2060 653.0390 102.7570 651.6740 0.0000 0.0000 0.0000 -34.5912 8.1329 24.3632 0.0000 0.0000 0.0000 0.7612 -3.4590 -15.6768 1.6576 -8.1131 -23.0581 0.0000 0.0000 0.0000 6.6897 4.0511 -30.1523 -2.6510 -10.1075 29.3254 -0.4798 5.0430 -12.3367 -0.7750 -5.6211 15.6888 -15.4265 -1.1360 3.2869 -1.6352 -1.7166 2.6456 6.9336 -1.0345 1.3963 2.6903 1.0023 -23.1147 0.3835 0.7632 31.3658 -0.1067 0.9013 14.7585 0.0000 0.0000 0.0000 -84.4145 -14.7342 47.8440 22.6903 -33.7484 -6.9655 -0.0000 -0.0000 1.3391 20.7783 -28.1397 -10.1456 -7.1250 0.0000 -0.0000 -5.6822 0.3371 5.6767 0.0000 0.0000 0.0000 87.2474 -16.1316 16.9899 -14.0279 22.7746 -2.8389 0.0000 0.0000 5.2659 -11.3647 -30.1775 5.7693 7.1250 -0.0000 -0.0000 22.6138 -59.1977 -8.1007
24.4055 16.3372 0.2091 653.8300 102.3280 652.5500 0.0000 0.0000 0.0000 -33.9965 8.1900 24.8668 0.0000 -0.0000 -0.0000 0.7092 -2.9505 -15.1814 2.0195 -8.9066 -25.5036 0.0000 0.0000 0.0000 7.2493 3.8582 -30.3403 -2.7064 -10.2039 29.6397 -0.4502 4.3854 -11.9362 -0.6878 -5.3022 14.7724 -14.8492 -1.1150 3.1135 -1.4901 -1.6597 2.6196 6.7658 -1.0049 1.4319 2.8162 0.9912 -23.1998 0.1729 0.7678 31.4141 -0.2137 0.8881 14.8006 -0.0000 -0.0000 0.0000 -84.6831 -14.2914 47.7053 22.4785 -33.5136 -6.8482 -0.0000 -0.0000 1.4980 20.7738 -28.1869 -10.1586 -7.1250 0.0000 -0.0000 -5.6905 0.2895 5.6899 -0.0000 -0.0000 0.0000 87.2817 -15.9683 16.9266 -14.0557 22.8143 -2.8497 0.0000 0.0000 5.6286 -11.1357 -30.2876 5.6694 7.1250 -0.0000 -0.0000 22.9362 -59.2465 -8.2509
24.5723 16.3438 0.2079 654.9110 101.7890 653.6020 0.0000 0.0000 0.0000 -33.2609 8.3280 25.5201 0.0000 0.0000 0.0000 0.6473 -2.3983 -14.5699 2.4586 -9.7622 -28.2101 0.0000 0.0000 0.0000 8.0096 3.2765 -30.1361 -2.7340 -10.2514 29.7947 -0.4048 4.3177 -11.3166 -0.6845 -5.2897 14.7367 -14.1323 -1.1109 2.9252 -1.3288 -1.6201 2.6251 6.5360 -0.9861 1.5093 2.8808 1.0108 -23.2571 0.1371 0.7887 31.5689 -0.2339 0.9041 14.8847 0.0000 0.0000 0.0000 -84.9057 -13.6701 47.4215 22.3432 -33.3627 -6.7736 -0.0000 -0.0000 1.8157 20.6924 -28.1151 -10.0928 -7.1250 0.0000 -0.0000 -5.7299 0.3786 5.7207 0.0000 0.0000 0.0000 87.2957 -15.6319 16.7012 -13.8825 22.5665 -2.7829 0.0000 0.0000 6.4085 -10.8801 -30.0976 5.5056 7.1250 -0.0000 -0.0000 23.0506 -59.0156 -8.1660
24.7377 16.3520 0.2086 656.5100 101.0160 655.0990 0.0000 0.0000 0.0000 -32.2311 8.5106 26.2148 0.0000 -0.0000 -0.0000 0.6282 -2.2889 -14.3660 2.4075 -9.6678 -27.9074 0.0000 0.0000 0.0000 8.9721 3.1005 -29.7206 -2.7636 -10.3021 29.9608 -0.3472 4.2679 -10.4850 -0.8041 -5.7231 15.9831 -13.2071 -1.0948 2.8396 -1.0752 -1.5844 2.6330 6.2896 -0.9639 1.5273 2.8229 1.0201 -23.2903 0.2535 0.7923 31.7313 -0.1730 0.9210 14.9658 -0.0000 -0.0000 0.0000 -85.1243 -12.9985 47.1616 22.1782 -33.1778 -6.6831 -0.0000 -0.0000 1.9991 20.7915 -28.1266 -10.1483 -7.1250 0.0000 -0.0000 -5.6728 0.3480 5.6662 -0.0000 -0.0000 0.0000 87.2520 -15.1709 16.3518 -13.6384 22.2154 -2.6899 0.0000 0.0000 7.4768 -10.6821 -29.7050 5.3400 7.1250 -0.0000 -0.0000 22.9515 -58.6132 -7.9045
24.8868 16.3602 0.2124 658.3960 100.5120 656.9310 0.0000 0.0000 0.0000 -31.4438 8.5285 26.8387 0.0000 0.0000 0.0000 0.6202 -2.2982 -14.2683 2.1214 -9.1144 -26.1539 0.0000 0.0000 0.0000 9.6570 2.9620 -29.3553 -2.8136 -10.3871 30.2396 -0.2839 4.3433 -9.5067 -1.0453 -6.5019 18.2479 -12.5397 -1.0890 2.9629 -0.8430 -1.6028 2.5636 6.1686 -0.9572 1.3675 2.7427 0.9582 -23.2664 0.2397 0.7492 31.8690 -0.1719 0.8958 15.0224 0.0000 -0.0000 0.0000 -85.4611 -12.3247 46.9031 21.8492 -32.8062 -6.5040 -0.0000 -0.0000 2.1152 21.0671 -28.3747 -10.3740 -7.1250 0.0000 -0.0000 -5.5405 0.0408 5.5627 0.0000 -0.0000 0.0000 87.1726 -14.7729 16.0802 -13.5002 22.0157 -2.6378 0.0000 0.0000 8.2622 -10.5664 -29.6403 5.2708 7.1250 -0.0000 -0.0000 23.0205 -58.5286 -7.8826
25.0424 16.3643 0.2139 659.1290 99.9864 657.5350 0.0000 0.0000 0.0000 -30.7154 8.7976 27.4963 0.0000 0.0000 0.0000 0.5985 -2.2198 -14.0225 1.9443 -8.7490 -25.0132 0.0000 0.0000 0.0000 10.3335 2.8802 -28.8137 -2.8689 -10.4797 30.5444 -0.2663 4.5570 -9.2410 -1.1621 -6.8438 19.2533 -11.9286 -1.0167 3.1353 -0.6398 -1.5398 2.4509 6.0481 -0.9042 1.1206 2.7282 0.9287 -23.0390 0.1329 0.7725 31.9551 -0.2091 0.8938 15.0115 0.0000 0.0000 0.0000 -85.8345 -11.4605 46.4781 21.5013 -32.4088 -6.3165 -0.0000 -0.0000 2.4230 21.1769 -28.6205 -10.5129 -7.1250 0.0000 -0.0000 -5.5064 -0.2328 5.5544 0.0000 0.0000 0.0000 87.0458 -14.5054 16.1040 -13.4223 21.9028 -2.6087 0.0000 0.0000 8.6464 -10.4713 -29.7578 5.2413 7.1250 -0.0000 -0.0000 23.2072 -58.6149 -7.9997
25.2088 16.3698 0.2174 659.9440 99.6030 658.1150 0.0000 0.0000 0.0000 -30.0842 9.0595 28.2921 0.0000 -0.0000 -0.0000 0.5309 -1.8826 -13.2441 1.9623 -8.7871 -25.1316 0.0000 0.0000 0.0000 10.8945 2.7014 -28.1265 -2.9270 -10.5759 30.8624 -0.3029 4.6696 -9.8369 -1.0350 -6.4707 18.1565 -11.5997 -1.0445 2.7857 -0.4271 -1.5037 2.7454 6.0758 -0.9243 1.6160 2.8169 1.0333 -23.0365 0.0072 0.9286 31.8289 -0.2478 0.9475 14.9567 -0.0000 0.0000 0.0000 -86.1747 -11.1893 45.9779 21.0329 -31.8667 -6.0673 -0.0000 -0.0000 2.7141 21.4160 -28.7080 -10.6695 -7.1250 0.0000 -0.0000 -5.3772 -0.3692 5.4357 -0.0000 0.0000 0.0000 86.7844 -13.6669 16.5212 -13.3511 21.7995 -2.5822 0.0000 0.0000 8.8255 -10.2329 -29.9100 5.1436 7.1250 -0.0000 -0.0000 23.5678 -58.7006 -8.1821
